<svg width="30" height="30" viewBox="0 0 30 30" fill="none" xmlns="http://www.w3.org/2000/svg">
<path fill-rule="evenodd" clip-rule="evenodd" d="M10.517 9.03601H26.8959L24.7024 19.8752H24.6705C24.6225 20.5637 24.062 21.1081 23.3736 21.1081L11.4457 21.1401C10.8213 21.1721 10.2448 20.7718 10.1007 20.1474L6.57839 6.00999H4.41699C3.69651 6.00999 3.104 5.41761 3.104 4.69713C3.104 3.97665 3.53646 3 4.27295 3H7.95529C8.61173 3 9.14017 3.4643 9.25225 4.08871L10.517 9.03601ZM22.0768 23.1254C23.1495 23.1254 24.014 23.99 24.014 25.0627C24.014 26.1354 23.1495 27 22.0768 27C21.0041 27 20.1394 26.1354 20.1394 25.0627C20.1394 23.99 21.0041 23.1254 22.0768 23.1254ZM12.4063 23.1254C13.479 23.1254 14.3435 23.99 14.3435 25.0627C14.3435 26.1354 13.479 27 12.4063 27C11.3336 27 10.4691 26.1354 10.4691 25.0627C10.4691 23.99 11.3336 23.1254 12.4063 23.1254Z" fill="#7D7E80"/>
</svg>
