<svg width="25" height="25" viewBox="0 0 25 25" fill="none" xmlns="http://www.w3.org/2000/svg">
<path fill-rule="evenodd" clip-rule="evenodd" d="M16.53 7.5C16.27 7.5 16.02 7.59998 15.84 7.78998C15.66 7.96998 15.55 8.21998 15.55 8.47998C15.55 8.73998 15.65 8.98998 15.84 9.16998C16.02 9.34998 16.27 9.46002 16.53 9.46002C16.79 9.46002 17.04 9.35998 17.22 9.16998C17.4 8.98998 17.51 8.73998 17.51 8.47998C17.51 8.21998 17.41 7.96998 17.22 7.78998C17.04 7.60998 16.78 7.5 16.53 7.5ZM12.5 8.63C10.37 8.63 8.63 10.36 8.63 12.49C8.63 14.62 10.36 16.35 12.5 16.35C14.64 16.35 16.37 14.62 16.37 12.49C16.36 10.37 14.63 8.63 12.5 8.63ZM12.5 15.03C11.1 15.03 9.96997 13.89 9.96997 12.5C9.96997 11.11 11.11 9.96997 12.5 9.96997C13.9 9.96997 15.03 11.11 15.03 12.5C15.03 13.89 13.9 15.03 12.5 15.03ZM15.86 5H9.14001C6.86001 5 5 6.86001 5 9.14001V15.86C5 18.14 6.86001 20 9.14001 20H15.86C18.14 20 20 18.14 20 15.86V9.14001C20 6.85001 18.14 5 15.86 5ZM18.67 15.86C18.67 17.41 17.41 18.67 15.86 18.67H9.14001C7.59001 18.67 6.32996 17.41 6.32996 15.86V9.14001C6.32996 7.59001 7.59001 6.33002 9.14001 6.33002H15.86C17.41 6.33002 18.67 7.59001 18.67 9.14001V15.86Z" fill="#7D7E80"/>
</svg>
