<svg width="70" height="70" viewBox="0 0 70 70" fill="none" xmlns="http://www.w3.org/2000/svg">
<path fill-rule="evenodd" clip-rule="evenodd" d="M0 0V70H70V0H0Z" fill="#B01116"/>
<path fill-rule="evenodd" clip-rule="evenodd" d="M67.15 67.53V59.11H35H2.84998V67.53H35H67.15ZM66.4 66.73H35H3.59998V59.91H35H66.4V66.73ZM33.62 66.05C34.6 66.05 35.64 65.79 36.44 65.22C36.62 65.09 36.78 64.96 36.92 64.82C37.24 64.47 37.43 64.08 37.51 63.68C37.56 63.44 37.56 63.2 37.51 62.96C37.43 62.54 37.24 62.14 36.9 61.8C36.08 60.92 34.78 60.57 33.61 60.57C32.1 60.57 29.65 61.36 29.65 63.31C29.65 64.1 30.16 64.77 30.77 65.22C31.57 65.81 32.64 66.05 33.62 66.05ZM33.64 65.14H33.62C32.79 65.14 31.84 64.9 31.31 64.21C30.84 63.57 30.94 62.75 31.5 62.19C31.53 62.17 31.56 62.14 31.6 62.11C31.62 62.09 31.65 62.06 31.68 62.05H31.7V62.03C32.24 61.63 32.95 61.47 33.62 61.47C34.68 61.47 36.22 62.02 36.22 63.32C36.22 64.58 34.71 65.14 33.64 65.14ZM37.52 65.09H37.49C37.49 65.41 37.49 65.73 37.49 66.04L37.52 66.06C37.9 66.09 38.27 66.11 38.64 66.08C38.82 66.06 38.98 66.05 39.14 66.02C39.32 65.99 39.48 65.92 39.62 65.84C39.76 65.76 39.91 65.66 40.05 65.53C40.16 65.42 40.26 65.29 40.32 65.13L40.35 65.03C40.41 64.84 40.45 64.61 40.45 64.37V64.35V61.62H42.7V65.98C43.13 65.98 43.55 65.98 43.98 65.98V60.7C42.38 60.7 40.77 60.7 39.17 60.7V63.91C39.17 64.47 39.07 65 38.46 65.08C38.14 65.14 37.84 65.14 37.52 65.09ZM47.11 63.81L44.46 65.94H46.18L47.83 64.61L48.78 63.84H49V65.94H50.3V60.66H47.83H47.7C47.46 60.66 47.22 60.68 47.01 60.72C44.8 61.06 44.83 63.32 46.98 63.78L47.11 63.81ZM47.83 62.94C47.45 62.92 47 62.88 46.77 62.55C46.75 62.52 46.74 62.49 46.72 62.47C46.67 62.39 46.66 62.31 46.66 62.23V62.21C46.66 61.81 47.04 61.6 47.83 61.57C47.89 61.57 47.94 61.57 48.01 61.57H49V62.93H48.01C47.96 62.94 47.9 62.94 47.83 62.94ZM54.09 60.66H51.59C51.59 62.43 51.59 64.19 51.59 65.94C52.41 65.94 53.26 66.02 54.09 65.97C54.51 65.95 54.92 65.92 55.33 65.83C55.68 65.75 55.96 65.62 56.15 65.46C56.87 64.8 56.95 63.69 55.94 63.15C55.4 62.86 54.74 62.8 54.09 62.78C53.67 62.76 53.26 62.78 52.87 62.78V61.58H54.09H55.81C55.81 61.28 55.81 60.97 55.81 60.66H54.09ZM52.87 63.68C53.21 63.68 53.66 63.65 54.09 63.66C54.41 63.68 54.72 63.72 54.96 63.84L55.04 63.89C55.42 64.13 55.42 64.73 54.94 64.89C54.67 64.99 54.38 65.03 54.09 65.05C53.67 65.07 53.26 65.05 52.87 65.05V63.68ZM58.83 60.73C58.4 60.73 57.98 60.73 57.55 60.73C57.55 62.48 57.55 64.24 57.55 66.01C57.98 66.01 58.4 66.01 58.83 66.01C58.83 64.24 58.83 62.48 58.83 60.73ZM61.97 63.81L59.32 65.94H61.04L62.69 64.61L63.64 63.84H63.88V65.94H65.16V60.66H62.69H62.56C62.32 60.66 62.08 60.68 61.87 60.72C59.65 61.06 59.69 63.32 61.84 63.78L61.97 63.81ZM62.69 62.94C62.31 62.92 61.86 62.88 61.63 62.55C61.61 62.52 61.6 62.49 61.58 62.47C61.53 62.39 61.52 62.31 61.52 62.23V62.21C61.52 61.81 61.9 61.6 62.69 61.57C62.75 61.57 62.8 61.57 62.87 61.57H63.88V62.93H62.89C62.82 62.94 62.76 62.94 62.69 62.94ZM28.13 60.82C27.73 60.69 27.26 60.66 26.85 60.66V60.68H24.49V65.94H25.77V63.9H26.85H26.91C27.34 63.9 27.71 63.87 28.02 63.79C28.09 63.77 28.15 63.74 28.2 63.73C28.26 63.71 28.31 63.7 28.38 63.67C29.72 63.07 29.7 61.32 28.13 60.82ZM26.85 63.01C26.82 63.01 26.79 63.01 26.75 63.01H26.73H25.77V61.58H26.67C26.73 61.58 26.8 61.58 26.85 61.58C28.29 61.67 28.28 62.94 26.85 63.01ZM21.88 61.58H23.68V60.68H18.8V61.58H20.6V65.96H21.88V61.58ZM18.22 65.04L18.36 64.91L18.2 64.81L17.51 64.41L17.43 64.36L17.35 64.42C17.14 64.6 16.89 64.74 16.61 64.84C16.56 64.86 16.51 64.89 16.45 64.9C15.81 65.09 14.96 65.14 14.3 64.9C14.16 64.85 14.03 64.79 13.9 64.71C13.21 64.31 12.89 63.59 13 62.93C13.13 62.26 13.67 61.82 14.28 61.6C15.24 61.26 16.37 61.26 17.2 61.94L18.15 61.3C17.01 60.56 15.87 60.35 14.54 60.58C14.48 60.6 14.41 60.61 14.33 60.63C14.25 60.65 14.18 60.66 14.12 60.68H14.1C13.27 60.89 12.42 61.31 11.95 62.06C11.87 62.17 11.81 62.28 11.76 62.4C11.57 62.9 11.58 63.43 11.76 63.92C11.9 64.3 12.13 64.66 12.43 64.95C12.46 64.98 12.51 65.01 12.54 65.06H12.56C12.72 65.2 12.9 65.33 13.09 65.45C13.3 65.56 13.51 65.66 13.76 65.74C13.95 65.81 14.18 65.85 14.39 65.9H14.41C15.45 66.06 16.59 66 17.56 65.5C17.67 65.44 17.78 65.37 17.9 65.29C18.01 65.2 18.1 65.12 18.22 65.04ZM11.77 65.81L8.15998 60.55V60.53L4.39998 66.02H4.65998H5.76998H5.82998L5.87998 65.96L6.74998 64.68H8.15998H9.56998L10.44 65.96L10.49 66.02H11.77H11.91L11.77 65.81ZM9.00998 63.78H8.15998H7.28998L8.15998 62.61L9.00998 63.78ZM51.41 50.07L50.62 48.14C50.39 48.4 49.75 48.85 49.51 49.1L50.38 50.98C50.63 50.75 51.19 50.33 51.41 50.07ZM48.86 43.64C48.4 43.33 47.7 43.37 47.37 43.43L48.12 45.26C48.26 45.24 48.73 45.15 49.02 45.07C49.73 44.86 49.36 43.94 48.86 43.64ZM42.44 57.45L64.37 57.42L64.27 56.92L58.96 55.44C56.01 49.28 53.12 42.27 50.1 35.21L48.08 35.19L46.16 35.17C48.77 41.81 51.41 48.47 54.13 55.32C53.15 55.34 52.49 55.35 51.52 55.37C48.78 48.5 46 41.81 43.22 35.14H41.5C44.24 41.72 46.91 48.38 49.47 55.44L42.41 56.92L42.44 57.45ZM57.46 35.3H55.68C55.58 37.74 54.85 40.72 53.98 42.89C54.3 43.63 54.6 44.21 54.93 44.93C56.29 42.15 57.32 38.59 57.46 35.3ZM44.84 35.7C44.58 36 44.34 36.31 44.29 36.39L44.84 37.46L45.13 38.02C45.42 37.68 45.93 37.35 46.19 36.99L45.4 35.1C45.35 35.1 45.09 35.39 44.84 35.7ZM57.86 34C57.86 33.63 57.64 33.34 57.36 33.34L35.12 31.75C34.22 31.72 32.84 32.2 32.49 33.29C32.19 34.04 31.61 34.49 30.44 34.46C24.47 34.41 18.17 34.65 12.2 34.59C11.93 34.59 11.7 34.88 11.7 35.25C11.68 35.6 11.91 35.91 12.18 35.91L34.61 37.48C35.49 37.51 36.49 36.79 36.84 35.7C37.13 34.95 38.3 34.42 39.49 34.45C45.46 34.5 51.38 34.58 57.35 34.64C57.62 34.64 57.86 34.35 57.86 34ZM55.6 32.54L57.4 32.67C56.68 23.38 50.34 15.61 41.79 12.79L42.59 14.72L42.72 15.04C49.76 17.97 54.88 24.63 55.6 32.54ZM44.84 19.48C45.32 20.01 45.72 20.51 46.11 21.15C45.9 21.21 45.65 21.44 45.4 21.52L45.9 22.9C46.19 22.82 46.54 22.6 46.83 22.53C47.55 24.1 47.95 25.82 47.99 27.57C48.42 28.58 48.84 29.59 49.27 30.6C49.45 29.72 49.54 28.8 49.54 27.86V27.84C49.54 23.8 47.77 19.96 44.84 17.3C44.33 16.83 43.78 16.42 43.19 16.02L44.46 19.1C44.59 19.22 44.71 19.35 44.84 19.48ZM35.11 13.43C35.69 13.45 36.25 13.48 36.81 13.54L36.07 11.7C35.61 11.67 35.14 11.65 34.67 11.65C34.57 11.65 34.49 11.65 34.4 11.65L35.11 13.43ZM37.41 14.74C36.82 14.63 36.21 14.56 35.6 14.53L36.43 16.65C36.98 16.71 37.62 16.63 38.15 16.76L37.41 14.74ZM39.64 24.95L40.41 26.57C40.76 26.2 41.26 25.83 41.63 25.51L40.94 23.92C40.58 24.19 40.01 24.6 39.64 24.95ZM38.16 29.46L37.42 27.73C36.71 28.77 36.01 29.91 35.48 31.05L37.16 31.23C37.45 30.59 37.78 30.03 38.16 29.46ZM32.42 15.19L31.87 17.28L33.06 17.01L32.56 15.2H32.42V15.19ZM33.22 30.02C31.78 27.4 30.32 25.66 28.92 24.47L28.31 25.96C30.16 27.74 31.57 29.68 32.55 32.01L32.6 31.98C32.95 31.66 33.4 31.44 33.85 31.27C33.65 30.85 33.44 30.44 33.22 30.02ZM48.99 32.06C44.29 20.99 39.89 10.1 36.65 2.46997H33.79C29.62 12.98 25.4 23.44 21.15 33.89L21.87 33.87L24.16 33.82C27.24 26.31 30.24 19.62 32.44 13.88C34.99 19.87 37.48 25.64 39.93 31.42L41.73 31.55C38.94 24.83 36.26 18.2 33.5 11.29C34.01 10.1 34.69 8.68997 35.2 7.49997C38.46 15.68 41.68 23.83 44.81 31.78L48.99 32.06ZM21.75 30.43C21.35 27.94 21.64 25.58 22.7 23.31C23.31 23.42 23.9 23.66 24.46 23.9L25.02 22.39C24.44 22.17 23.88 22.01 23.4 21.86C24.27 20.43 25.41 19.31 26.74 18.31L27.74 15.78C23.18 18.12 20.28 22.84 20.07 27.88V29.08C20.12 30.33 20.34 31.6 20.76 32.85L21.75 30.43ZM28.2 14.45L29.05 12.35C19.31 14.85 12.07 23.63 11.9 34.07L12.33 34.04C12.48 33.98 12.62 33.94 12.78 33.94H13.26L13.68 33.89C13.92 24.84 19.95 17.15 28.2 14.45ZM11.99 36.5C12.31 40.06 13.45 43.4 15.23 46.29L16.08 44.2C14.88 41.91 14.07 39.37 13.78 36.68L12.7 36.6C12.6 36.6 12.49 36.58 12.39 36.54L11.99 36.5ZM47.14 51.34C43.66 53.92 39.34 55.46 34.67 55.46C28.6 55.46 23.12 52.86 19.27 48.7C19.06 49.33 18.84 49.95 18.63 50.59C22.75 54.7 28.43 57.23 34.67 57.23C39.55 57.23 44.07 55.69 47.79 53.06C47.58 52.5 47.37 51.92 47.14 51.34ZM36.38 42.48C38.71 42.21 40.87 41.36 42.7 40.09L42.12 38.57C41.58 38.97 38.28 40.69 35.75 40.7C35.75 40.7 35.41 38.29 35.43 38.02C34.9 38.2 34.45 38.13 33.92 38.1C33.94 39.08 33.84 40.06 33.57 40.99C30.73 40.75 28.03 39.51 25.97 37.54L23.72 37.38C26.03 40.2 29.37 42.05 32.98 42.48C31.84 44.63 29.47 46.06 27.01 45.99C26.14 45.97 26.03 45.89 25.26 45.33C24.6 44.85 23.99 44.43 23.38 44.16C22.77 43.89 22.18 43.79 21.57 43.95C20.54 44.25 20.53 45.35 21.52 45.3C22.29 45.25 22.85 45.3 23.54 45.78C24.89 46.74 26 48.7 26.92 49.57C27.55 50.15 28.38 49.68 27.85 48.96C27.64 48.7 27.43 48.27 27.3 47.95C27.08 47.42 27.65 47.47 28.1 47.39C28.64 47.29 28.95 47.24 30.07 46.88C32.09 46.21 33.81 44.57 34.63 42.58H34.66H34.68C35.95 45.61 38.21 46.7 40.95 47.33C41.49 47.44 42.73 47.44 42.17 48.28L41.71 48.97C41.61 49.13 41.5 49.32 41.47 49.47C41.45 49.55 41.45 49.61 41.49 49.68C41.54 49.74 41.6 49.79 41.72 49.78C41.82 49.76 41.98 49.68 42.18 49.54C42.73 49.17 43.74 48.18 44.83 47.21C45.01 47.05 45.2 46.91 45.37 46.75L44.83 45.35L44.7 45.05C43.96 45.58 43.21 46 42.36 46.01C39.91 46.06 37.52 44.65 36.38 42.48ZM12.22 55.58L5.09998 57.25L5.04998 57.7L25.79 57.67L25.82 57.25L16.21 55.58C18.22 49.1 20.48 42.98 22.76 37.32L19.82 37.11C17.3 43.27 14.77 49.43 12.22 55.58Z" fill="white"/>
</svg>
