<svg width="24" height="24" viewBox="0 0 24 24" fill="none" xmlns="http://www.w3.org/2000/svg">
<path fill-rule="evenodd" clip-rule="evenodd" d="M22.5837 19.6105L17.6533 14.6801C18.5049 13.2906 19.0278 11.662 19.0278 9.91394C19.0278 4.87889 14.949 0.800049 9.9139 0.800049C4.87885 0.800049 0.800049 4.87889 0.800049 9.91394C0.800049 14.949 4.87885 19.0278 9.9139 19.0278C11.662 19.0278 13.2906 18.5049 14.6801 17.6533L19.6105 22.5837C20.4322 23.4055 21.7619 23.4055 22.5837 22.5837C23.4054 21.762 23.4054 20.4323 22.5837 19.6105ZM9.89895 16.2339C6.41774 16.2339 3.57902 13.4101 3.57902 9.91394C3.57902 6.43273 6.4028 3.59398 9.89895 3.59398C13.3802 3.59398 16.2189 6.41779 16.2189 9.91394C16.2189 13.3951 13.3951 16.2339 9.89895 16.2339Z" fill="#161616"/>
</svg>
