<svg width="25" height="25" viewBox="0 0 25 25" fill="none" xmlns="http://www.w3.org/2000/svg">
<path fill-rule="evenodd" clip-rule="evenodd" d="M19.6625 16.8606L17.3434 14.5415C16.8835 14.0817 16.1139 14.0917 15.6441 14.5715L14.4745 15.741C14.4046 15.701 14.3246 15.6611 14.2446 15.6111C13.5049 15.2012 12.4954 14.6415 11.4358 13.5819C10.3763 12.5223 9.81647 11.5127 9.40664 10.773C9.36665 10.693 9.32666 10.6231 9.27669 10.5431L10.0564 9.76344L10.4461 9.37358C10.9259 8.89378 10.936 8.1341 10.4762 7.67429L8.15714 5.35522C7.69733 4.89541 6.93756 4.9054 6.45776 5.38521L5.80812 6.04495L5.82801 6.06493C5.6081 6.34481 5.42825 6.6647 5.28831 7.01455C5.15836 7.34442 5.0884 7.66428 5.04842 7.97416C4.73854 10.5131 5.89807 12.8222 9.0468 15.9709C13.395 20.3192 16.8936 19.9893 17.0436 19.9693C17.3734 19.9293 17.6833 19.8494 18.0131 19.7294C18.353 19.5995 18.6828 19.4095 18.9627 19.1896L18.9727 19.1996L19.6325 18.5499C20.1123 18.0901 20.1223 17.3204 19.6625 16.8606Z" fill="#7D7E80"/>
</svg>
